#!OML:ASF H:\ManfredETheater\Project 1\Capture day 1\Session 1\subject.ASF
:FULLY-SPECIFIED
:DEGREES
496
root 1.80603 17.5513 -5.45435 10.6189 9.44132 0.480118
lowerback 8.55987 -3.13658 -3.14672
upperback 1.58537 -4.37039 2.14617
thorax -2.73749 -2.14441 4.45149
lowerneck -12.8653 -3.18318 -1.85341
upperneck 9.74064 -4.38796 3.52511
head 5.15344 -1.97294 1.04162
rclavicle 2.28602e-015 4.37326e-015
rhumerus -53.397 6.39109 -59.365
rradius 52.9586
rwrist 1.81782
rhand -18.5203 -7.60899
rfingers 7.12502
rthumb 7.76817 -37.4463
lclavicle 2.28602e-015 4.37326e-015
lhumerus -31.7761 -5.45078 77.3922
lradius 78.2254
lwrist -3.17006
lhand -17.4506 4.67863
lfingers 7.12502
lthumb 8.80052 34.4751
rfemur -24.4367 -7.28138 10.616
rtibia 42.075
rfoot -18.5964 -17.5209
rtoes 2.13266
lfemur -34.0789 4.09479 -19.9013
ltibia 48.3153
lfoot -19.9502 -4.03193
ltoes 2.39535
497
root 1.84316 17.5384 -5.41895 10.2352 9.90655 0.878377
lowerback 8.41827 -3.11377 -3.64075
upperback 1.56398 -4.38939 1.89298
thorax -2.66189 -2.15234 4.45734
lowerneck -12.6705 -3.38879 -2.09619
upperneck 9.96625 -4.67698 3.88062
head 5.21428 -2.09856 1.16844
rclavicle -3.13086e-015 2.76311e-014
rhumerus -53.7051 6.12194 -58.9997
rradius 52.4471
rwrist 2.03981
rhand -18.8646 -7.67949
rfingers 7.12502
rthumb 7.43587 -37.5288
lclavicle -3.13086e-015 2.76311e-014
lhumerus -31.8864 -5.15267 77.6533
lradius 78.2591
lwrist -3.30847
lhand -17.3952 4.64051
lfingers 7.12502
lthumb 8.85401 34.4348
rfemur -24.0047 -7.06472 9.9948
rtibia 42.8107
rfoot -18.6572 -18.1013
rtoes 1.7884
lfemur -33.3578 3.67758 -20.4147
ltibia 48.1044
lfoot -20.0326 -4.02299
ltoes 2.74358
498
root 1.8813 17.5261 -5.38451 9.83277 10.4238 1.3039
lowerback 8.29832 -3.10876 -4.13668
upperback 1.55935 -4.43084 1.63577
thorax -2.57852 -2.17206 4.46277
lowerneck -12.4628 -3.59456 -2.3514
upperneck 10.1833 -4.96612 4.23596
head 5.27236 -2.22506 1.2975
rclavicle -1.51573e-015 4.52235e-015
rhumerus -54.0086 5.82517 -58.6333
rradius 51.9861
rwrist 2.22762
rhand -19.2516 -7.78427
rfingers 7.12502
rthumb 7.06231 -37.6464
lclavicle -1.51573e-015 4.52235e-015
lhumerus -31.9284 -4.88942 77.8679
lradius 78.2435
lwrist -3.50767
lhand -17.3096 4.59451
lfingers 7.12502
lthumb 8.93659 34.3852
rfemur -23.5784 -6.81259 9.33935
rtibia 43.6386
rfoot -18.6364 -18.7067
rtoes 1.4346
lfemur -32.6262 3.27664 -20.9631
ltibia 47.9128
lfoot -20.1194 -4.06988
ltoes 3.02997
499
root 1.9204 17.5144 -5.35138 9.41426 10.9992 1.72993
lowerback 8.1996 -3.12364 -4.60663
upperback 1.56956 -4.49508 1.3824
thorax -2.49038 -2.20389 4.46021
lowerneck -12.2433 -3.79976 -2.61804
upperneck 10.3934 -5.25406 4.58613
head 5.32811 -2.35218 1.4272
rclavicle 6.49529e-014 -1.57288e-014
rhumerus -54.3096 5.51154 -58.273
rradius 51.579
rwrist 2.37316
rhand -19.6596 -7.91961
rfingers 7.12502
rthumb 6.6684 -37.7946
lclavicle 6.49529e-014 -1.57288e-014
lhumerus -31.8998 -4.66197 78.042
lradius 78.1774
lwrist -3.76309
lhand -17.2111 4.53195
lfingers 7.12502
lthumb 9.0316 34.3186
rfemur -23.1669 -6.53852 8.68588
rtibia 44.5542
rfoot -18.5243 -19.3319
rtoes 1.11756
lfemur -31.8893 2.88769 -21.5175
ltibia 47.7369
lfoot -20.2034 -4.1647
ltoes 3.30271
500
root 1.96052 17.5038 -5.31986 8.98238 11.6322 2.13108
lowerback 8.12123 -3.15913 -5.02582
upperback 1.59144 -4.58109 1.14041
thorax -2.40157 -2.24732 4.44345
lowerneck -12.0136 -4.00276 -2.89306
upperneck 10.5999 -5.53841 4.92448
head 5.38253 -2.47907 1.55516
rclavicle -3.44955e-014 -4.666e-015
rhumerus -54.6085 5.19368 -57.9255
rradius 51.2264
rwrist 2.47273
rhand -20.0638 -8.08044
rfingers 7.12502
rthumb 6.27827 -37.9674
lclavicle -3.44955e-014 -4.666e-015
lhumerus -31.8008 -4.4691 78.183
lradius 78.0606
lwrist -4.06078
lhand -17.1224 4.44679
lfingers 7.12502
lthumb 9.11727 34.2297
rfemur -22.7833 -6.25726 8.06854
rtibia 45.5553
rfoot -18.3126 -19.9743
rtoes 0.892128
lfemur -31.149 2.50347 -22.0504
ltibia 47.5704
lfoot -20.2835 -4.29626
ltoes 3.59985
501
root 2.00181 17.4943 -5.29012 8.54084 12.3158 2.48675
lowerback 8.06108 -3.21437 -5.37696
upperback 1.62064 -4.68656 0.91621
thorax -2.31658 -2.30105 4.40928
lowerneck -11.7767 -4.20108 -3.1714
upperneck 10.808 -5.81588 5.24351
head 5.43712 -2.6044 1.67846
rclavicle -2.47363e-014 -1.81391e-015
rhumerus -54.9038 4.88513 -57.5962
rradius 50.9251
rwrist 2.52846
rhand -20.4397 -8.25819
rfingers 7.12502
rthumb 5.91533 -38.1556
lclavicle -2.47363e-014 -1.81391e-015
lhumerus -31.6346 -4.30804 78.2996
lradius 77.8946
lwrist -4.37991
lhand -17.0671 4.34071
lfingers 7.12502
lthumb 9.17062 34.1213
rfemur -22.4468 -5.98189 7.51502
rtibia 46.6442
rfoot -17.9928 -20.6353
rtoes 0.816714
lfemur -30.4066 2.11478 -22.5402
ltibia 47.4053
lfoot -20.3618 -4.44789
ltoes 3.94365
502
root 2.04438 17.4863 -5.26228 8.09395 13.037 2.78443
lowerback 8.0168 -3.28708 -5.65355
upperback 1.65192 -4.80828 0.71421
thorax -2.24021 -2.36316 4.35853
lowerneck -11.5356 -4.39166 -3.44711
upperneck 11.024 -6.08259 5.53617
head 5.49366 -2.72641 1.79419
rclavicle 3.56694e-014 -1.6201e-014
rhumerus -55.1928 4.59898 -57.2893
rradius 50.6695
rwrist 2.54704
rhand -20.7658 -8.44127
rfingers 7.12502
rthumb 5.60045 -38.3473
lclavicle 3.56694e-014 -1.6201e-014
lhumerus -31.4076 -4.1744 78.4005
lradius 77.6831
lwrist -4.6967
lhand -17.0664 4.22039
lfingers 7.12502
lthumb 9.17131 34.001
rfemur -22.1749 -5.7219 7.04224
rtibia 47.8125
rfoot -17.5442 -21.3211
rtoes 0.951194
lfemur -29.6562 1.71231 -22.9746
ltibia 47.218
lfoot -20.4317 -4.59885
ltoes 4.33818
503
root 2.08827 17.4799 -5.23632 7.648 13.7775 3.02357
lowerback 7.98507 -3.37358 -5.86334
upperback 1.68018 -4.94237 0.535671
thorax -2.17586 -2.4314 4.29659
lowerneck -11.2964 -4.57137 -3.71395
upperneck 11.2543 -6.33475 5.79728
head 5.55438 -2.84315 1.89992
rclavicle 1.16041e-014 7.55382e-015
rhumerus -55.4704 4.34553 -57.0078
rradius 50.4527
rwrist 2.53801
rhand -21.0239 -8.61631
rfingers 7.12502
rthumb 5.35131 -38.5287
lclavicle 1.16041e-014 7.55382e-015
lhumerus -31.1275 -4.06249 78.4936
lradius 77.4326
lwrist -4.9889
lhand -17.1339 4.09972
lfingers 7.12502
lthumb 9.10613 33.8831
rfemur -22.0021 -5.48336 6.65162
rtibia 49.088
rfoot -16.9628 -22.0354
rtoes 1.35537
lfemur -28.9056 1.28875 -23.3544
ltibia 47.0157
lfoot -20.503 -4.72388
ltoes 4.77459
504
root 2.13391 17.4801 -5.21183 7.21125 14.5167 3.2141
lowerback 7.96222 -3.46937 -6.02587
upperback 1.70057 -5.08479 0.37884
thorax -2.12575 -2.50341 4.23227
lowerneck -11.0642 -4.73724 -3.96573
upperneck 11.5034 -6.56884 6.02383
head 5.62081 -2.95269 1.99388
rclavicle -3.72721e-015 -1.19271e-015
rhumerus -55.7316 4.13116 -56.7536
rradius 50.2679
rwrist 2.51311
rhand -21.2007 -8.77006
rfingers 7.12502
rthumb 5.18061 -38.6867
lclavicle -3.72721e-015 -1.19271e-015
lhumerus -30.804 -3.96619 78.5843
lradius 77.1522
lwrist -5.23963
lhand -17.2745 3.99115
lfingers 7.12502
lthumb 8.9705 33.7804
rfemur -21.9425 -5.26928 6.33324
rtibia 50.4672
rfoot -16.2297 -22.7829
rtoes 2.09461
lfemur -28.1408 0.84073 -23.6933
ltibia 46.7762
lfoot -20.5744 -4.80168
ltoes 5.24051
505
root 2.17987 17.4769 -5.18947 6.79314 15.2335 3.37385
lowerback 7.94506 -3.56943 -6.16871
upperback 1.70921 -5.23142 0.239324
thorax -2.09068 -2.57687 4.17602
lowerneck -10.8445 -4.88674 -4.19742
upperneck 11.7737 -6.78202 6.21633
head 5.69404 -3.05323 2.07555
rclavicle -1.00138e-014 1.69961e-014
rhumerus -55.9714 3.95686 -56.5277
rradius 50.1107
rwrist 2.48364
rhand -21.2866 -8.89197
rfingers 7.12502
rthumb 5.09766 -38.8107
lclavicle -1.00138e-014 1.69961e-014
lhumerus -30.448 -3.87949 78.6746
lradius 76.8542
lwrist -5.43997
lhand -17.4821 3.90595
lfingers 7.12502
lthumb 8.77009 33.7037
rfemur -22.0523 -5.08434 6.06136
rtibia 51.9941
rfoot -15.33 -23.5562
rtoes 3.23578
lfemur -27.3986 0.37423 -24.0078
ltibia 46.5251
lfoot -20.6391 -4.82344
ltoes 5.72231
